<svg width="75" height="57" viewBox="0 0 75 57" fill="none" xmlns="http://www.w3.org/2000/svg">
<g clip-path="url(#clip0_45_4)">
<path d="M17.2707 29.7899H17.8005V34.4759H23.769V29.766L37.3618 29.7182C39.5876 29.7998 41.33 31.4481 41.33 33.4706L41.3341 33.6458C41.4288 36.8726 44.1622 39.4982 47.4295 39.4982C50.6967 39.4982 53.5289 36.795 53.5289 33.4706C53.5289 33.2198 53.5128 32.9669 53.4806 32.7181C53.8512 32.8177 54.2319 32.8674 54.6187 32.8674C57.058 32.8674 59.0401 30.9066 59.0401 28.498C59.0401 26.0893 57.056 24.1285 54.6187 24.1285C54.2319 24.1285 53.8512 24.1783 53.4806 24.2778C53.5128 24.029 53.5289 23.7762 53.5289 23.5253C53.5289 20.203 50.7934 17.4977 47.4295 17.4977C44.0655 17.4977 41.4227 20.1273 41.3341 23.3601L41.33 23.5233C41.33 25.5498 39.5917 27.2021 37.386 27.2857L17.2687 27.206C16.5476 27.206 15.9614 27.7853 15.9614 28.498C15.9614 29.2106 16.5476 29.7879 17.2707 29.7879V29.7899ZM51.3937 33.4726C51.3937 35.6344 49.615 37.3921 47.4275 37.3921C45.2399 37.3921 43.4612 35.6344 43.4612 33.4726C43.4612 31.3107 45.2399 29.553 47.4275 29.553C49.615 29.553 51.3937 31.3107 51.3937 33.4726ZM56.9049 28.5C56.9049 29.7461 55.8776 30.7613 54.6167 30.7613C53.3557 30.7613 52.3284 29.7461 52.3284 28.5C52.3284 27.2538 53.3557 26.2386 54.6167 26.2386C55.8776 26.2386 56.9049 27.2538 56.9049 28.5ZM43.4632 23.5253C43.4632 21.3655 45.2419 19.6058 47.4295 19.6058C49.6171 19.6058 51.3957 21.3635 51.3957 23.5253C51.3957 25.6872 49.6171 27.4449 47.4295 27.4449C45.2419 27.4449 43.4632 25.6872 43.4632 23.5253ZM40.3994 28.5039C41.1387 28.0501 41.7792 27.4409 42.2667 26.7263C42.7119 27.423 43.3041 28.0322 43.993 28.5C43.3041 28.9697 42.7119 29.5789 42.2647 30.2776C41.7793 29.5649 41.1407 28.9578 40.4014 28.5039H40.3994Z" fill="#24262B"/>
<path d="M41.7028 27.0766C41.7148 27.0607 41.731 27.0488 41.737 27.0288C41.743 27.0089 41.7471 26.991 41.7511 26.9771C41.7612 26.9532 41.7692 26.9333 41.7753 26.9134C41.7894 26.8736 41.8035 26.8377 41.8317 26.786C41.8861 26.6884 41.9989 26.5113 42.2728 26.1072C42.3735 26.2545 42.5004 26.4436 42.6616 26.6825C42.7361 26.792 42.861 26.9632 42.8932 26.999C42.9456 27.0647 43.004 27.1363 43.0705 27.212C43.3384 27.5086 43.3867 27.4588 43.4915 27.6877C43.5983 27.9087 43.701 27.9406 43.7916 27.9664C43.8662 28.0023 43.9528 28.0401 44.0495 28.1078C44.1421 28.1735 44.265 28.269 44.3617 28.3885C44.3818 28.4143 44.4302 28.4522 44.5027 28.5019C44.404 28.5716 44.2851 28.6632 44.1462 28.7766C44.0757 28.8324 44.0051 28.8941 43.9306 28.9578L43.8158 29.0573L43.7634 29.113C43.6265 29.2584 43.5036 29.3997 43.421 29.4355C43.3162 29.4833 43.1732 29.6067 43.0181 29.7859C42.9799 29.8297 42.9396 29.8794 42.9013 29.9292C42.8811 29.9551 42.863 29.981 42.8429 30.0088C42.8127 30.0506 42.7824 30.0905 42.7522 30.1342C42.5991 30.3552 42.438 30.616 42.2728 30.8787C42.1721 30.7414 42.0714 30.604 41.9687 30.4647C41.9163 30.391 41.8619 30.3234 41.8095 30.2537L41.7289 30.1482L41.6866 30.0944L41.6625 30.0666C41.5497 29.9372 41.4349 29.8118 41.32 29.6943C41.0944 29.4574 40.8789 29.2444 40.7298 29.0573C40.3995 28.6532 40.3088 28.6313 40.3773 28.5457C40.4257 28.48 40.7963 28.6393 41.1126 28.8543C41.4308 29.0653 41.6927 29.3161 41.6363 29.2623C41.8196 29.4315 41.9707 29.5948 42.0976 29.7481C42.1661 29.8277 42.2164 29.8993 42.2627 29.969C42.3111 29.8954 42.3594 29.8317 42.4017 29.7739C42.4803 29.6724 42.5508 29.5808 42.6173 29.4952C42.7603 29.3121 42.8751 29.1509 42.9839 28.9618C43.1632 28.6592 43.2014 28.7269 43.3827 28.6373C43.4069 28.6253 43.4331 28.6114 43.4492 28.6014C43.4552 28.6014 43.4653 28.5935 43.4713 28.5875C43.4855 28.5756 43.4935 28.5616 43.4955 28.5497C43.4995 28.5218 43.4754 28.5019 43.4371 28.4959C43.3847 28.49 43.3585 28.4959 43.3565 28.4959C43.3565 28.4959 43.3606 28.4959 43.3646 28.488C43.3666 28.488 43.3646 28.482 43.3706 28.482C43.3686 28.476 43.3525 28.4581 43.3444 28.4462C43.3243 28.4203 43.3062 28.3904 43.288 28.3606C43.1833 28.1735 43.147 28.1137 42.9859 27.9545C42.9073 27.8729 42.7965 27.7674 42.6435 27.6002C42.5669 27.5146 42.4803 27.415 42.3836 27.2916C42.3393 27.2379 42.305 27.1921 42.2627 27.1304C42.2627 27.1324 42.2547 27.1423 42.2486 27.1523C42.2305 27.1801 42.2104 27.206 42.1922 27.2299C42.164 27.2637 42.1358 27.2976 42.1097 27.3294C42.0029 27.4568 41.8941 27.5703 41.7874 27.6738C41.5738 27.8808 41.3684 28.0421 41.1851 28.1655C40.8185 28.4123 40.5485 28.5119 40.4458 28.5119C40.339 28.5119 40.3975 28.4143 40.6231 28.2033C40.8446 27.9883 41.2374 27.6539 41.7088 27.0766H41.7028Z" fill="#24262B"/>
<path d="M45.9633 19.6396C46.0137 19.6217 46.0681 19.6058 46.1124 19.5819C46.2453 19.5102 46.3118 19.4843 46.3843 19.4465C46.4588 19.4127 46.5434 19.3709 46.7388 19.337C46.8355 19.3211 46.9584 19.2873 47.1236 19.2813C47.2062 19.2753 47.2968 19.2693 47.3995 19.2634C47.5023 19.2614 47.6151 19.2693 47.742 19.2733C48.2375 19.3092 48.9687 19.4246 49.8147 19.9661C50.0444 20.1253 50.2156 20.2507 50.3405 20.3642C50.4714 20.4697 50.5621 20.5593 50.6386 20.6409C50.7957 20.8002 50.8944 20.9375 51.0395 21.2321C51.3013 21.8114 51.3879 22.0423 51.5128 22.2533C51.5652 22.3628 51.6115 22.4683 51.6538 22.6176C51.676 22.6913 51.682 22.7808 51.6921 22.8824C51.7002 22.9839 51.7082 23.1033 51.6901 23.2427C51.682 23.4437 51.7203 24.0767 51.5612 24.7177C51.4182 25.3607 51.0556 25.9599 50.8501 26.145C50.6185 26.37 50.2277 26.794 49.6093 27.1583C49.4602 27.2578 49.285 27.3295 49.1097 27.417C48.9264 27.4847 48.7411 27.5703 48.5356 27.6161C48.1348 27.7355 47.6896 27.7873 47.2384 27.7734C46.3319 27.7654 45.4033 27.4031 44.7305 26.8617C44.0537 26.3162 43.6327 25.6095 43.4776 25.0342C43.4313 24.869 43.393 24.7217 43.3769 24.5863C43.3547 24.453 43.3326 24.3375 43.3306 24.232C43.3245 24.1285 43.3185 24.0389 43.3145 23.9633C43.3145 23.8876 43.3205 23.8219 43.3225 23.7682C43.3386 23.5552 43.3588 23.5134 43.4132 23.5233C43.4333 23.5273 43.4555 23.591 43.4796 23.6945C43.5018 23.8 43.5219 23.9454 43.5683 24.1146C43.6448 24.453 43.7919 24.8869 44.0154 25.2632C44.233 25.6434 44.513 25.9639 44.7225 26.1669C44.942 26.36 45.0649 26.4635 44.9984 26.4058C45.6994 26.9552 46.4367 27.1782 47.0611 27.2419C47.6916 27.2956 48.2214 27.206 48.6504 27.0607C49.0835 26.9174 49.424 26.7163 49.6979 26.4874C49.8429 26.3819 49.9537 26.2485 50.0706 26.1291C50.1713 25.9937 50.28 25.8683 50.3566 25.719C50.4513 25.5618 50.5077 25.4403 50.556 25.3488C50.5802 25.303 50.6023 25.2652 50.6245 25.2313C50.6426 25.1955 50.6587 25.1656 50.6769 25.1378C50.7433 25.0243 50.8219 24.9566 50.9146 24.7635C51.11 24.3634 51.116 23.9752 51.0656 23.5771C51.0092 23.173 50.9307 22.7609 50.8058 22.1697C50.7856 22.0602 50.7514 21.9746 50.7272 21.893C50.7051 21.8114 50.6769 21.7397 50.6386 21.6701C50.6023 21.6004 50.5681 21.5267 50.5177 21.4471C50.4634 21.3715 50.3989 21.2859 50.3224 21.1804C50.1491 20.9893 49.9155 20.7185 49.4683 20.4339C49.0251 20.1592 48.3584 19.8427 47.3875 19.8427C46.9826 19.8466 46.5998 19.9223 46.2494 20.0278C45.8968 20.1353 45.5886 20.3045 45.3087 20.4777C44.7607 20.8459 44.37 21.2918 44.1121 21.7139C43.8523 22.1359 43.7254 22.528 43.6367 22.8266C43.5542 23.1292 43.526 23.3422 43.4917 23.4477C43.4575 23.5532 43.4293 23.5492 43.4091 23.4198C43.3991 23.3561 43.389 23.2606 43.3829 23.1312C43.387 23.0038 43.395 22.8425 43.4232 22.6495C43.4837 22.2653 43.6307 21.7417 44.0114 21.1724C44.2008 20.8877 44.4526 20.6011 44.7688 20.3264C45.0931 20.0596 45.4879 19.8148 45.9573 19.6356L45.9633 19.6396Z" fill="#24262B"/>
<path d="M55.4971 30.835C55.4669 30.8469 55.4347 30.8529 55.4085 30.8708C55.3299 30.9226 55.2916 30.9465 55.2514 30.9743C55.207 31.0002 55.1567 31.0301 55.0378 31.0539C54.9794 31.0659 54.9049 31.0878 54.8042 31.0918C54.7055 31.1017 54.5806 31.1097 54.4275 31.0977C54.1233 31.0778 53.6761 31.0082 53.1584 30.6757C53.0174 30.5782 52.9127 30.5025 52.8341 30.4349C52.7516 30.3712 52.6951 30.3174 52.6488 30.2676C52.5521 30.1721 52.4917 30.0845 52.4192 29.8934C52.2903 29.5231 52.2278 29.3957 52.1352 29.2683C52.0626 29.1429 51.972 29.0096 52.0304 28.6672C52.0485 28.5437 52.0103 28.1635 52.0949 27.7674C52.1694 27.3713 52.3829 26.995 52.5219 26.8895C52.677 26.7621 52.9167 26.5093 53.2934 26.2864C53.4787 26.1729 53.6983 26.0734 53.944 26.0037C54.1878 25.93 54.4597 25.8942 54.7337 25.9002C55.2876 25.9002 55.8597 26.1172 56.2706 26.4516C56.6835 26.788 56.9333 27.2259 57.0058 27.5823C57.0864 27.9923 57.0703 28.2233 57.0502 28.3487C57.03 28.4761 57.0079 28.5 56.9555 28.494C56.8709 28.484 56.8205 27.9306 56.5405 27.5146C56.4116 27.3036 56.2505 27.1264 56.1316 27.0149C56.0067 26.9094 55.9382 26.8517 55.9745 26.8836C55.5777 26.581 55.1688 26.4595 54.8223 26.4237C54.4718 26.3939 54.1757 26.4416 53.936 26.5232C53.6943 26.6029 53.5049 26.7163 53.3579 26.8477C53.2068 26.9771 53.096 27.1264 53.0215 27.2976C52.9792 27.3892 52.955 27.4588 52.9308 27.5086C52.9046 27.5584 52.8845 27.5922 52.8664 27.6221C52.8261 27.6798 52.7697 27.7117 52.7093 27.8132C52.5803 28.0262 52.6045 28.2491 52.6589 28.4641C52.7153 28.6851 52.7737 28.8881 52.7959 29.2245C52.81 29.344 52.82 29.4316 52.8563 29.5112C52.8724 29.551 52.8905 29.5928 52.9167 29.6386C52.9449 29.6824 52.9792 29.7302 53.0215 29.7879C53.1161 29.8934 53.2471 30.0427 53.4948 30.198C53.7406 30.3473 54.1072 30.5185 54.641 30.5185C55.0882 30.5105 55.481 30.3692 55.7872 30.1741C56.0913 29.975 56.3129 29.7322 56.466 29.5032C56.7661 29.0354 56.8145 28.6552 56.8769 28.5378C56.9071 28.4781 56.9374 28.4781 56.9615 28.5537C56.9736 28.5915 56.9837 28.6473 56.9938 28.7229C56.9958 28.7985 56.9978 28.8941 56.9857 29.0096C56.9595 29.2385 56.881 29.553 56.6594 29.8974C56.5486 30.0686 56.4015 30.2438 56.2122 30.409C56.0208 30.5702 55.7831 30.7195 55.5031 30.829L55.4971 30.835Z" fill="#24262B"/>
<path d="M48.894 37.3603C48.8436 37.3782 48.7892 37.3941 48.7449 37.418C48.612 37.4897 48.5455 37.5156 48.473 37.5534C48.3985 37.5872 48.3138 37.629 48.1185 37.6629C48.0218 37.6788 47.8989 37.7126 47.7337 37.7186C47.6511 37.7246 47.5605 37.7306 47.4578 37.7365C47.355 37.7385 47.2422 37.7306 47.1153 37.7266C46.6198 37.6907 45.8886 37.5773 45.0426 37.0338C44.8129 36.8746 44.6417 36.7492 44.5168 36.6357C44.3859 36.5302 44.2952 36.4406 44.2187 36.359C44.0616 36.1998 43.9629 36.0624 43.8178 35.7678C43.556 35.1885 43.4694 34.9576 43.3445 34.7466C43.2921 34.6371 43.2458 34.5316 43.2035 34.3823C43.1813 34.3086 43.1753 34.2211 43.1652 34.1175C43.1571 34.016 43.1491 33.8966 43.1672 33.7592C43.1753 33.5582 43.137 32.9252 43.2941 32.2842C43.4371 31.6412 43.7997 31.042 44.0052 30.8569C44.2368 30.6319 44.6276 30.2079 45.246 29.8436C45.3951 29.7441 45.5703 29.6724 45.7456 29.5849C45.9289 29.5172 46.1142 29.4316 46.3196 29.3858C46.7205 29.2664 47.1657 29.2146 47.6169 29.2285C48.5233 29.2365 49.452 29.5968 50.1247 30.1402C50.8016 30.6857 51.2226 31.3904 51.3777 31.9677C51.424 32.1329 51.4623 32.2802 51.4784 32.4155C51.5005 32.5489 51.5227 32.6644 51.5247 32.7699C51.5308 32.8734 51.5368 32.963 51.5408 33.0386C51.5408 33.1143 51.5348 33.18 51.5328 33.2337C51.5167 33.4467 51.4965 33.4885 51.4421 33.4785C51.422 33.4746 51.3998 33.4109 51.3756 33.3074C51.3535 33.2038 51.3333 33.0565 51.287 32.8873C51.2105 32.5489 51.0634 32.115 50.8398 31.7387C50.6223 31.3585 50.3403 31.038 50.1328 30.835C49.9132 30.6419 49.7904 30.5384 49.8568 30.5961C49.1558 30.0467 48.4186 29.8237 47.7941 29.76C47.1637 29.7063 46.6339 29.7959 46.2048 29.9412C45.7717 30.0845 45.4313 30.2856 45.1574 30.5145C45.0123 30.62 44.9016 30.7534 44.7847 30.8728C44.684 31.0082 44.5752 31.1336 44.4987 31.2829C44.404 31.4401 44.3476 31.5616 44.2993 31.6531C44.2751 31.6989 44.2529 31.7367 44.2308 31.7706C44.2126 31.8064 44.1965 31.8363 44.1784 31.8641C44.1119 31.9776 44.0334 32.0453 43.9407 32.2384C43.7453 32.6385 43.7393 33.0267 43.7896 33.4248C43.846 33.8289 43.9246 34.241 44.0495 34.8322C44.0696 34.9417 44.1039 35.0273 44.128 35.1089C44.1502 35.1905 44.1804 35.2622 44.2167 35.3318C44.2529 35.4015 44.2872 35.4752 44.3375 35.5548C44.3919 35.6304 44.4564 35.716 44.5329 35.8215C44.7062 36.0126 44.9398 36.2834 45.387 36.568C45.8302 36.8407 46.4969 37.1592 47.4678 37.1592C47.8727 37.1553 48.2554 37.0796 48.6059 36.9721C48.9584 36.8646 49.2666 36.6954 49.5466 36.5222C50.0945 36.154 50.4853 35.7061 50.7431 35.2861C51.003 34.864 51.1299 34.4719 51.2185 34.1733C51.3011 33.8707 51.3293 33.6577 51.3636 33.5522C51.3978 33.4467 51.426 33.4507 51.4461 33.5801C51.4562 33.6438 51.4663 33.7393 51.4723 33.8687C51.4683 33.9961 51.4603 34.1574 51.432 34.3524C51.3716 34.7366 51.2246 35.2602 50.8439 35.8295C50.6545 36.1142 50.4027 36.4008 50.0865 36.6755C49.7622 36.9423 49.3673 37.1891 48.898 37.3663L48.894 37.3603Z" fill="#24262B"/>
<path d="M31.329 29.5072C31.5748 29.5072 31.8346 29.5092 32.0643 29.5012C33.4481 29.4495 33.3313 29.4216 35.12 29.3977C35.5672 29.3937 36.1333 29.3878 36.8725 29.3798C37.0619 29.3818 37.2452 29.3699 37.4688 29.3838C37.5816 29.3918 37.6964 29.4017 37.8172 29.4117C37.9341 29.4316 38.0529 29.4515 38.1758 29.4714C38.6633 29.5709 39.193 29.7541 39.7168 30.0745C40.2425 30.3911 40.7481 30.8668 41.1389 31.5038C41.3222 31.8283 41.4894 32.1866 41.58 32.5867C41.6102 32.6843 41.6183 32.7878 41.6384 32.8913L41.6626 33.0466C41.6687 33.0983 41.6687 33.1521 41.6727 33.2038C41.6787 33.3073 41.6868 33.4228 41.6888 33.5184C41.6888 33.6159 41.6969 33.7095 41.7049 33.805C41.7492 34.5634 41.9648 35.3836 42.3999 36.1739C42.4462 36.2774 42.5187 36.367 42.5771 36.4645C42.6416 36.56 42.698 36.6616 42.7705 36.7551C42.9196 36.9383 43.0545 37.1353 43.2318 37.3065C43.5581 37.6708 43.963 37.9893 44.4062 38.272C45.4234 38.8991 46.3339 39.0683 47.0369 39.116C47.2141 39.118 47.3813 39.1419 47.5385 39.126C47.6956 39.116 47.8446 39.1081 47.9856 39.1001C48.1246 39.0842 48.2556 39.0583 48.3825 39.0404C48.4449 39.0304 48.5074 39.0205 48.5678 39.0125C48.6282 39.0006 48.6846 38.9827 48.743 38.9687C48.8578 38.9389 48.9686 38.911 49.0754 38.8831C49.1842 38.8553 49.2849 38.8095 49.3896 38.7756C49.4924 38.7358 49.5991 38.706 49.6998 38.6602C49.8006 38.6124 49.9033 38.5666 50.0101 38.5169C50.427 38.3098 50.8923 38.055 51.4141 37.5872C52.0063 37.0637 52.3809 36.5123 52.6408 36.0206C52.9087 35.5289 53.0255 35.079 53.1202 34.6948C53.1625 34.4997 53.1766 34.3166 53.2028 34.1454C53.2249 33.9742 53.2149 33.811 53.2229 33.6537C53.2229 33.5761 53.229 33.4984 53.2229 33.4228C53.2169 33.3392 53.2129 33.2576 53.2068 33.176C53.1867 32.8953 53.1343 32.5847 53.094 32.2782C53.3035 32.3279 53.5331 32.3857 53.7628 32.4374C53.8192 32.4474 53.8796 32.4593 53.932 32.4673L54.0126 32.4792L54.0609 32.4852C54.1193 32.4912 54.1777 32.4952 54.2361 32.5011C54.355 32.5091 54.4819 32.5151 54.6128 32.5131C54.7458 32.5051 54.8848 32.4991 55.0318 32.4912C55.1768 32.4653 55.334 32.4534 55.4971 32.4175C55.6583 32.3757 55.8335 32.3439 56.0108 32.2762C56.1941 32.2224 56.3754 32.1329 56.5728 32.0473C56.6675 31.9935 56.7641 31.9398 56.8649 31.884C56.9656 31.8263 57.0582 31.7527 57.163 31.685C57.2395 31.6392 57.3161 31.5635 57.4107 31.4839C57.5095 31.4063 57.6061 31.3028 57.7109 31.1853C57.8237 31.0758 57.9163 30.9285 58.0332 30.7832C58.1279 30.624 58.2447 30.4607 58.3273 30.2656C58.5086 29.8874 58.6596 29.4375 58.706 28.9439C58.7543 28.4502 58.712 27.9167 58.5589 27.3971C58.4058 26.8796 58.1379 26.3779 57.7774 25.9519C57.4188 25.5239 56.9656 25.1776 56.4801 24.9347C55.9927 24.6919 55.473 24.5565 54.9754 24.5167C54.8505 24.5107 54.7276 24.5067 54.6068 24.5008C54.4859 24.5008 54.3671 24.5087 54.2502 24.5187C54.1918 24.5246 54.1354 24.5306 54.079 24.5386L53.9743 24.5545C53.9139 24.5645 53.8534 24.5764 53.793 24.5883C53.5513 24.6421 53.2975 24.7157 53.0658 24.7735C53.09 24.3793 53.1142 24.0071 53.1363 23.6587C53.1403 23.6129 53.1424 23.5691 53.1464 23.5253C53.1444 23.4815 53.1424 23.4377 53.1403 23.3959C53.1363 23.3103 53.1323 23.2287 53.1283 23.1511C53.1242 23.0735 53.1242 22.9978 53.1182 22.9262C53.1081 22.8545 53.098 22.7868 53.09 22.7211C53.0719 22.5917 53.0578 22.4743 53.0437 22.3708C52.9329 21.7099 52.6045 20.7902 51.8713 19.8785C51.4966 19.4326 51.0172 19.0006 50.4311 18.6463C49.8469 18.2919 49.154 18.0172 48.3925 17.8918C47.6331 17.7664 46.8052 17.7863 45.9914 17.9993C45.1797 18.2103 44.378 18.6065 43.7011 19.1917C43.0263 19.773 42.4462 20.5135 42.1017 21.3754L41.9728 21.6999C41.9366 21.8094 41.9084 21.9229 41.8761 22.0343C41.8016 22.2553 41.7754 22.4902 41.7311 22.7191C41.7049 22.8346 41.709 22.952 41.6969 23.0695C41.6888 23.1869 41.6767 23.3024 41.6727 23.4238C41.6646 23.6726 41.6566 23.9593 41.6042 24.228C41.4088 25.3189 40.7098 26.3043 39.7671 26.8995C39.2978 27.2021 38.772 27.415 38.2262 27.5305C38.0892 27.5544 37.9522 27.5803 37.8132 27.6002L37.3902 27.636H36.6167C34.558 27.628 32.5215 27.6201 30.5676 27.6121C26.6578 27.5902 23.0803 27.5524 20.3247 27.4847C19.5351 27.4648 18.8301 27.4489 18.1996 27.433C17.8853 27.425 17.5892 27.419 17.3092 27.4131C17.0635 27.4031 16.852 27.4628 16.6727 27.5703C16.3141 27.7853 16.149 28.1516 16.1349 28.4581C16.1187 28.7707 16.2295 29.0275 16.3645 29.2026C16.4995 29.3798 16.6546 29.4833 16.7835 29.549C16.9144 29.6107 17.0192 29.6446 17.0957 29.6605C17.2508 29.6943 17.2891 29.7083 17.2629 29.7341C17.2528 29.7401 17.1723 29.758 17.0292 29.7401C16.8882 29.7222 16.6808 29.6704 16.4672 29.5192C16.2557 29.3699 16.0362 29.1131 15.9556 28.7547C15.873 28.4044 15.9455 27.9565 16.2436 27.6121C16.3887 27.4409 16.5861 27.2976 16.8177 27.216C17.0474 27.1224 17.3133 27.1324 17.553 27.1304C18.0465 27.1264 18.5662 27.1224 19.1 27.1184C20.1676 27.1125 21.2976 27.1085 22.4116 27.1025C26.7283 27.0946 29.2925 27.0906 30.1688 27.0906C32.445 27.0946 34.5318 27.0985 36.4535 27.1025C36.9329 27.0985 37.4144 27.1264 37.8394 27.0607C38.2785 27.003 38.6935 26.8656 39.0722 26.6805C39.4509 26.4954 39.7913 26.2565 40.0814 25.9778C40.3714 25.6991 40.6011 25.3766 40.7763 25.0382C40.9495 24.6998 41.0704 24.3395 41.1127 23.9792C41.1308 23.8896 41.1328 23.7981 41.1389 23.7085C41.1429 23.6169 41.151 23.5313 41.151 23.4338C41.157 23.2427 41.1792 23.0496 41.1913 22.8625C41.2759 22.108 41.4995 21.4053 41.8157 20.7822C42.134 20.1612 42.5308 19.6097 42.9961 19.1599C43.4594 18.708 43.967 18.3417 44.4928 18.0531C45.0286 17.7823 45.5745 17.5793 46.1244 17.4599C46.6743 17.3544 47.2182 17.2946 47.7419 17.3325C48.7934 17.3782 49.7663 17.6748 50.5882 18.1506C52.2379 19.0942 53.3539 20.6489 53.7084 22.4365C53.7386 22.6315 53.7869 22.8147 53.797 22.9938C53.8091 23.171 53.8212 23.3382 53.8333 23.4955C53.8353 23.5751 53.8292 23.6507 53.8272 23.7244C53.8272 23.7503 53.8272 23.7742 53.8252 23.8V23.82C53.8252 23.8458 53.8252 23.8657 53.8313 23.8777C53.8534 23.8697 53.8715 23.8637 53.8897 23.8598L53.9018 23.8558L53.9682 23.8458C54.0267 23.8379 54.081 23.8319 54.1354 23.8239C54.355 23.802 54.5504 23.7921 54.7297 23.804C55.0882 23.814 55.3803 23.8637 55.6563 23.9294C55.7932 23.9692 55.9302 24.0031 56.0672 24.0509C56.2021 24.1066 56.3431 24.1564 56.4922 24.2241C56.7803 24.3714 57.1187 24.5406 57.4873 24.8471C58.3313 25.5319 58.8933 26.4138 59.1391 27.3533C59.268 27.8211 59.3264 28.3049 59.3002 28.7866C59.276 29.2663 59.1955 29.754 59.0142 30.2159C58.6657 31.1395 58.005 32.0154 57.0179 32.5907C56.5285 32.8794 55.9624 33.0924 55.344 33.1839C55.2675 33.1959 55.1889 33.2078 55.1104 33.2178C55.0318 33.2217 54.9512 33.2257 54.8727 33.2297C54.7135 33.2397 54.5504 33.2456 54.3872 33.2337C54.3046 33.2297 54.222 33.2217 54.1395 33.2138L54.0146 33.1979L53.9138 33.1839C53.8997 33.1799 53.9038 33.178 53.8917 33.174C53.8897 33.176 53.8877 33.1819 53.8836 33.1919C53.8836 33.2655 53.8856 33.3651 53.8836 33.4507C53.8776 33.5402 53.8715 33.6298 53.8655 33.7214C53.8514 34.0857 53.7829 34.4559 53.6943 34.8322C53.6097 35.1248 53.5352 35.3935 53.4284 35.6324C53.378 35.7518 53.3377 35.8713 53.2813 35.9788C53.2249 36.0863 53.1706 36.1918 53.1162 36.2933C52.8986 36.6994 52.6549 37.0378 52.385 37.3683C51.8371 38.0132 51.1562 38.6542 49.8751 39.2275C49.2285 39.4903 48.4147 39.7132 47.4055 39.7152C46.4044 39.7033 45.1877 39.4644 43.9831 38.696C43.3889 38.3078 42.8068 37.7903 42.3092 37.1194C41.8117 36.4526 41.4088 35.6264 41.2215 34.6729C41.1993 34.5535 41.1772 34.434 41.155 34.3126C41.1369 34.1912 41.1328 34.0658 41.1208 33.9404C41.0946 33.6876 41.0946 33.4328 41.0785 33.2038C41.0402 32.736 40.8992 32.2603 40.6434 31.8223C40.1297 30.9524 39.1709 30.2338 37.9965 30.0288L37.7608 29.9889C37.6823 29.979 37.6037 29.975 37.5252 29.969C37.3741 29.9511 37.2029 29.9551 37.0377 29.9551C36.7053 29.9551 36.375 29.9571 36.0487 29.9591C35.394 29.9611 34.7474 29.9631 34.1129 29.9651C32.8418 29.967 31.609 29.971 30.4186 29.973C28.1121 29.973 25.9649 29.975 23.9848 29.977C23.9747 31.6611 23.9666 33.2257 23.9586 34.661C21.5011 34.6391 19.3941 34.6212 17.6678 34.6072C17.6859 33.387 17.702 32.3598 17.7141 31.5397C17.7302 30.7613 17.7484 30.1462 17.7645 29.8237C17.4684 29.8098 17.273 29.7959 17.273 29.7799C17.273 29.772 17.3153 29.764 17.4019 29.756C17.4945 29.7481 17.6456 29.7401 17.8571 29.7322C17.8732 30.186 17.8894 30.7175 17.9035 31.5038C17.9155 32.2443 17.9296 33.1839 17.9458 34.3305C19.4565 34.3186 21.3258 34.3027 23.5738 34.2828C23.5678 32.8535 23.5597 31.2769 23.5517 29.553C25.8782 29.5391 28.4667 29.5231 31.329 29.5052V29.5072Z" fill="#24262B"/>
<path d="M43.1732 55.8832C44.6094 55.8832 45.3265 55.9708 46.0437 56.0564C46.4042 56.1002 46.7587 56.144 47.212 56.1739C47.4476 56.1838 47.7075 56.1918 48.0036 56.1938C48.1507 56.1938 48.3078 56.1938 48.475 56.1938C48.6422 56.1918 48.8194 56.1739 49.0088 56.1619C49.3854 56.1321 49.7178 56.1082 50.0099 56.0664C50.302 56.0206 50.5598 55.9748 50.7915 55.929C51.2568 55.8454 51.6214 55.7299 51.9839 55.6224C52.1652 55.5687 52.3465 55.5169 52.5379 55.4592C52.7293 55.3975 52.9307 55.3318 53.1543 55.2641C53.3779 55.1945 53.6276 55.1288 53.9076 55.0491C54.1876 54.9616 54.4999 54.868 54.8604 54.7665C55.223 54.6709 55.5292 54.5555 55.8092 54.4738C56.0872 54.3863 56.3369 54.3206 56.5585 54.2429C57.0017 54.0936 57.3663 53.9941 57.7248 53.8767C58.0793 53.7532 58.4379 53.6318 58.875 53.4566C59.0905 53.3611 59.3262 53.2536 59.5921 53.1262C59.7251 53.0625 59.8641 52.9928 60.0151 52.9211C60.1602 52.8395 60.3132 52.7539 60.4784 52.6624C61.7898 51.9218 62.4041 51.4839 63.0246 51.0579C63.3388 50.8509 63.6309 50.614 64.0076 50.3293C64.1949 50.188 64.4003 50.0287 64.6199 49.8357C64.8435 49.6446 65.0973 49.4335 65.3773 49.1847C65.9252 48.6711 66.3361 48.2849 66.6524 47.9366C66.8135 47.7654 66.9586 47.6121 67.0955 47.4688C67.2305 47.3215 67.3493 47.1762 67.4722 47.0348C67.7139 46.7482 67.9678 46.4715 68.2498 46.0972C68.3948 45.9121 68.5539 45.711 68.7352 45.4801C68.9064 45.2432 69.0978 44.9765 69.3174 44.6739C69.9156 43.812 70.2641 43.2247 70.53 42.7191C70.81 42.2215 70.9993 41.7994 71.2632 41.254C71.3982 41.0529 71.5211 40.8181 71.66 40.5473C71.7265 40.412 71.799 40.2666 71.8756 40.1114C71.9521 39.9561 72.0287 39.7889 72.0992 39.6038C72.3268 39.0344 72.502 38.5806 72.6108 38.1824C72.7236 37.7863 72.8263 37.4638 72.8827 37.1533C72.9533 36.9124 73.0197 36.6895 73.0862 36.4625C73.1184 36.3491 73.1527 36.2356 73.1869 36.1182C73.2151 35.9987 73.2453 35.8753 73.2755 35.7459C73.338 35.4851 73.4045 35.1985 73.485 34.864C73.5475 34.5236 73.618 34.1355 73.7026 33.6736C73.7973 33.0466 73.8537 32.5509 73.902 32.1329C73.9322 31.7129 73.9564 31.3705 73.9786 31.048C74.0551 30.6558 74.0712 30.2896 74.0954 29.8257C74.0994 29.7103 74.1034 29.5889 74.1095 29.4595C74.1095 29.336 74.1095 29.2027 74.1095 29.0613C74.1095 28.7787 74.1095 28.4562 74.1095 28.0799C74.1075 27.9028 74.1034 27.6679 74.1014 27.5106H71.4828C71.4828 27.6719 71.4385 27.8888 71.4385 28.072C71.4385 28.4263 71.4385 28.7369 71.4385 29.0116C71.4385 29.2883 71.4385 29.5331 71.4324 29.7362C71.4203 30.1522 71.4203 30.4826 71.4022 30.8131C71.378 31.1435 71.3539 31.472 71.3216 31.888C71.3015 32.0951 71.2672 32.322 71.235 32.5808C71.2008 32.8396 71.1726 33.1322 71.1061 33.4626C70.8241 35.093 70.7334 35.73 70.5884 36.6059C70.5179 36.8507 70.4232 37.1155 70.3185 37.432C70.2198 37.7505 70.0748 38.1088 69.9015 38.5408C69.8371 38.698 69.7827 38.8473 69.7202 38.9847C69.6558 39.12 69.5974 39.2474 69.541 39.3689C69.4261 39.6077 69.3274 39.8188 69.2307 40.0099C69.0233 40.3821 68.8541 40.6747 68.6828 40.9693C68.5016 41.256 68.3182 41.5426 68.0906 41.901C67.9798 42.0821 67.8408 42.2692 67.6958 42.4902C67.5468 42.7092 67.3916 42.962 67.1882 43.2327C66.9888 43.5074 66.8176 43.7503 66.6564 43.9593C66.4872 44.1643 66.3402 44.3435 66.2052 44.5067C65.9393 44.8372 65.6956 45.074 65.4639 45.3209C65.3451 45.4423 65.2323 45.5677 65.1054 45.6951C64.9765 45.8205 64.8395 45.9539 64.6884 46.1012C64.3943 46.4058 64.0156 46.7442 63.5241 47.208C63.1797 47.5066 62.8936 47.7554 62.6459 47.9704C62.39 48.1755 62.1725 48.3506 61.9771 48.5079C61.8784 48.5875 61.7857 48.6632 61.6951 48.7368C61.6004 48.8065 61.5098 48.8742 61.4171 48.9419C61.2338 49.0772 61.0485 49.2126 60.841 49.3659C60.3616 49.6087 59.8197 49.9252 58.9516 50.403C58.6937 50.5563 58.452 50.6717 58.2385 50.7852C58.025 50.8987 57.8356 51.0002 57.6624 51.0937C57.3079 51.2649 57.0218 51.4103 56.7499 51.5516C56.4779 51.6909 56.21 51.8044 55.9039 51.9437C55.5997 52.0871 55.2411 52.2165 54.7839 52.3757C54.5965 52.4374 54.4012 52.5091 54.1735 52.5668C53.7646 52.6783 53.4262 52.7838 53.122 52.8535C52.6668 52.947 52.3062 53.0227 51.9839 53.0724C51.6596 53.1122 51.3756 53.1461 51.0755 53.1839C50.7774 53.2277 50.4571 53.2357 50.0683 53.2775C49.6795 53.3252 49.2162 53.3432 48.624 53.3889C48.1386 53.4228 47.7357 53.4188 47.3933 53.4367C47.2241 53.4447 47.0589 53.4487 46.8997 53.4507C46.7426 53.4546 46.5976 53.4566 46.4586 53.4606C45.9006 53.4745 45.4474 53.4865 44.835 53.5024C44.3919 53.5004 43.8601 53.4964 43.1571 53.4925C42.6616 53.4925 42.2567 53.5024 41.9042 53.5183C40.4297 53.5223 39.8858 53.5243 38.502 53.5283V56.1161C40.3592 56.0644 40.7157 55.8852 43.1752 55.8852L43.1732 55.8832Z" fill="#24262B"/>
<path d="M1.57538 34.2728C1.60761 34.4559 1.63581 34.6251 1.66401 34.7864C1.69624 34.9456 1.72847 35.0969 1.75667 35.2383C1.81307 35.5209 1.85739 35.7737 1.89364 36.0027C1.98026 36.4585 2.04673 36.8248 2.10515 37.1971C2.24615 37.9316 2.38917 38.6781 2.97736 40.0596C3.13247 40.402 3.27548 40.6966 3.40642 40.9594C3.53936 41.2201 3.67634 41.4411 3.7972 41.6422C3.92007 41.8432 4.03288 42.0204 4.14367 42.1876C4.26251 42.3488 4.37531 42.5001 4.4861 42.6514C4.71171 42.952 4.93127 43.2546 5.21731 43.6248C5.35831 43.812 5.50737 44.017 5.67457 44.2559C5.85183 44.4868 6.0452 44.7476 6.26275 45.0481C6.47426 45.3527 6.68577 45.6015 6.85698 45.8344C7.03425 46.0634 7.17726 46.2764 7.32633 46.4555C7.61639 46.8198 7.82991 47.1264 8.06156 47.419C8.29724 47.7096 8.5309 48.0023 8.84313 48.3526C9.00427 48.5218 9.18556 48.7069 9.39506 48.912C9.4998 49.0155 9.61059 49.125 9.73145 49.2364C9.85634 49.3459 9.98929 49.4594 10.1323 49.5828C11.2724 50.5622 11.8949 50.9902 12.5052 51.4281C13.1236 51.8561 13.7501 52.2801 15.0735 53.0027C15.4099 53.1719 15.706 53.3212 15.9679 53.4546C16.2297 53.59 16.4735 53.6835 16.687 53.7811C16.9025 53.8746 17.0979 53.9602 17.2812 54.0399C17.4665 54.1155 17.6458 54.1792 17.821 54.2469C18.1756 54.3763 18.5241 54.5216 18.9753 54.6609C19.1989 54.7346 19.4466 54.8162 19.7266 54.9078C20.0086 54.9954 20.3289 55.079 20.6915 55.1825C21.1971 55.3358 21.6282 55.4094 21.9948 55.493C22.3614 55.5766 22.6736 55.6224 22.9596 55.6622C23.2457 55.702 23.5035 55.7379 23.7654 55.7757C24.0293 55.7996 24.2972 55.8255 24.6013 55.8553C25.0767 55.9708 25.6568 56.0285 26.4505 56.0902C27.0649 56.1061 27.5664 56.1121 27.9693 56.0982C28.3661 56.0823 28.6904 56.0584 28.9946 56.0345C29.9635 56.0385 30.6323 56.0405 32.4452 56.0464C33.6679 56.0424 34.3709 56.0405 34.9953 56.0365C35.7608 56.128 36.4054 56.1181 37.9302 56.1181C38.1095 56.1161 38.3472 56.1121 38.5063 56.1101V53.5223C38.3432 53.5223 38.1236 53.4785 37.9383 53.4785C35.0678 53.4825 35.1142 53.4825 32.2417 53.4845C30.4731 53.4845 29.7943 53.6079 28.8617 53.7034C28.5917 53.7054 28.2956 53.7074 27.9431 53.7114C27.5967 53.7114 27.2139 53.6975 26.7406 53.6875C26.3961 53.6776 26.098 53.6417 25.8301 53.6218C25.5622 53.5979 25.3265 53.58 25.115 53.5422C24.692 53.4745 24.3515 53.4228 24.0172 53.3551C23.6828 53.2794 23.3484 53.2038 22.9314 53.1182C22.724 53.0664 22.4963 53.0107 22.2385 52.945C21.9787 52.8833 21.6886 52.8176 21.3602 52.7181C21.0319 52.6225 20.7439 52.5489 20.4901 52.4633C20.2383 52.3737 20.0187 52.2961 19.8173 52.2244C19.4144 52.087 19.1062 51.9358 18.794 51.8044C18.6389 51.7347 18.4818 51.671 18.3186 51.5934C18.1554 51.5137 17.9842 51.4321 17.7928 51.3386C17.6035 51.243 17.386 51.1574 17.1543 51.03C16.9186 50.9086 16.6547 50.7732 16.3526 50.6199C15.9538 50.397 15.6214 50.2119 15.3353 50.0526C15.0513 49.8874 14.8177 49.7361 14.6001 49.6067C14.3826 49.4773 14.1872 49.3579 13.9998 49.2285C13.8105 49.1011 13.6191 48.9737 13.4056 48.8304C13.2042 48.6572 12.9947 48.4501 12.7308 48.2272C12.4629 48.0082 12.1668 47.7315 11.7901 47.411C11.5585 47.2199 11.3671 47.0348 11.1898 46.8736C11.0106 46.7123 10.8514 46.569 10.7044 46.4376C10.4224 46.1649 10.1907 45.9459 9.96511 45.7369C9.74152 45.5299 9.54412 45.3169 9.31045 45.078C9.07276 44.8411 8.83104 44.5505 8.52486 44.1782C8.40199 44.025 8.27307 43.8637 8.14012 43.6726C7.8984 43.3282 7.68085 43.0515 7.51567 42.7868C7.27395 42.3926 7.07453 42.0881 6.92749 41.7994C6.78044 41.5108 6.65152 41.258 6.51455 40.9912C6.38764 40.7205 6.2547 40.4338 6.08952 40.0835C6.00089 39.9103 5.92032 39.7152 5.82564 39.4982C5.72895 39.2832 5.62219 39.0444 5.50133 38.7756C5.32206 38.3277 5.17299 37.9615 5.04609 37.6449C4.92926 37.3245 4.83257 37.0577 4.74193 36.8129C4.64524 36.57 4.58481 36.3411 4.50625 36.1102C4.43574 35.8773 4.34913 35.6424 4.27661 35.3637C4.2323 35.1606 4.18194 34.9377 4.12554 34.6849C4.09734 34.5595 4.06309 34.4261 4.03489 34.2828C4.0087 34.1394 3.98252 33.9862 3.9523 33.8249C3.91202 33.596 3.87173 33.389 3.83144 33.1998C3.79921 33.0087 3.769 32.8336 3.7408 32.6683C3.70051 32.326 3.64814 32.0373 3.63202 31.7765C3.61188 31.5158 3.59174 31.2809 3.57361 31.05C3.56353 30.9345 3.55548 30.819 3.54541 30.7036C3.54138 30.5861 3.53936 30.4667 3.53533 30.3393C3.52728 30.0865 3.52123 29.8118 3.51116 29.4873H0.894531C0.918703 29.969 0.950933 30.3532 0.983162 30.6956C1.01741 31.04 1.07985 31.3426 1.12819 31.6631C1.15237 31.8243 1.17855 31.9895 1.20474 32.1667C1.23697 32.3439 1.27121 32.531 1.30747 32.74C1.34172 32.947 1.37797 33.174 1.41826 33.4288C1.46459 33.6816 1.51696 33.9583 1.57336 34.2708L1.57538 34.2728Z" fill="#24262B"/>
<path d="M31.8264 1.11669C30.3902 1.11669 29.6731 1.0291 28.956 0.943506C28.5954 0.899712 28.2409 0.855918 27.7876 0.826059C27.552 0.816106 27.2921 0.808143 26.996 0.806152C26.849 0.806152 26.6918 0.806152 26.5247 0.806152C26.3575 0.808143 26.1802 0.826059 25.9909 0.838003C25.6142 0.867862 25.2818 0.89175 24.9897 0.933553C24.6976 0.979338 24.4398 1.02512 24.2082 1.07091C23.7428 1.15451 23.3783 1.26997 23.0157 1.37747C22.8344 1.43121 22.6531 1.48297 22.4617 1.5407C22.2704 1.60241 22.0689 1.6681 21.8453 1.73578C21.6217 1.80545 21.372 1.87114 21.092 1.95077C20.812 2.03836 20.4998 2.13192 20.1392 2.23344C19.7766 2.32899 19.4704 2.44445 19.1904 2.52607C18.9125 2.61365 18.6627 2.67935 18.4411 2.75698C17.9979 2.90628 17.6333 3.00581 17.2748 3.12326C16.9203 3.24668 16.5617 3.36811 16.1246 3.54328C15.9091 3.63883 15.6734 3.74633 15.4075 3.87373C15.2746 3.93743 15.1356 4.0071 14.9845 4.07876C14.8395 4.16038 14.6864 4.24598 14.5212 4.33755C13.2099 5.07807 12.5955 5.51601 11.9751 5.942C11.6608 6.14903 11.3687 6.38592 10.9921 6.67058C10.8047 6.81191 10.5993 6.97117 10.3797 7.16426C10.1561 7.35536 9.9023 7.56637 9.62231 7.8152C9.07441 8.32878 8.66348 8.71497 8.34723 9.06333C8.18608 9.23452 8.04105 9.3878 7.90408 9.53113C7.76911 9.67844 7.65027 9.82375 7.52739 9.96509C7.28567 10.2517 7.03187 10.5284 6.74986 10.9027C6.60482 11.0878 6.44569 11.2889 6.2644 11.5198C6.09318 11.7567 5.90182 12.0234 5.68226 12.326C5.084 13.1879 4.73552 13.7752 4.46962 14.2808C4.18963 14.7785 4.00028 15.2005 3.7364 15.7459C3.60144 15.947 3.47857 16.1819 3.33958 16.4526C3.2731 16.5879 3.20059 16.7333 3.12404 16.8885C3.0475 17.0438 2.97095 17.211 2.90045 17.3961C2.67283 17.9655 2.49758 18.4193 2.38881 18.8175C2.276 19.2136 2.17327 19.5361 2.11687 19.8466C2.04637 20.0875 1.9799 20.3104 1.91342 20.5374C1.88119 20.6508 1.84695 20.7643 1.81271 20.8818C1.7845 21.0012 1.75429 21.1246 1.72407 21.254C1.66163 21.5148 1.59516 21.8014 1.51458 22.1359C1.45214 22.4763 1.38164 22.8644 1.29703 23.3263C1.20236 23.9533 1.14596 24.449 1.09761 24.867C1.0674 25.287 1.04323 25.6294 1.02107 25.9519C0.944524 26.3441 0.928409 26.7104 0.904237 27.1742C0.900208 27.2896 0.89618 27.4111 0.890137 27.5405C0.890137 27.6639 0.890137 27.7972 0.890137 27.9386C0.890137 28.2213 0.890137 28.5437 0.890137 28.92C0.892151 29.0971 0.89618 29.332 0.898194 29.4893H3.51684C3.51684 29.328 3.56115 29.1111 3.56115 28.9279C3.56115 28.5736 3.56115 28.2631 3.56115 27.9883C3.56115 27.7116 3.56115 27.4668 3.5672 27.2638C3.57928 26.8477 3.57928 26.5173 3.59741 26.1868C3.62158 25.8564 3.64576 25.5279 3.67799 25.1119C3.69813 24.9048 3.73237 24.6779 3.7646 24.4191C3.79885 24.1603 3.82705 23.8677 3.89352 23.5373C4.17553 21.9069 4.26617 21.2699 4.41121 20.3941C4.48171 20.1492 4.57638 19.8845 4.68113 19.5679C4.77983 19.2494 4.92486 18.8911 5.0981 18.4592C5.16256 18.3019 5.21694 18.1526 5.27939 18.0152C5.34385 17.8799 5.40226 17.7525 5.45866 17.631C5.57348 17.3922 5.67218 17.1792 5.76887 16.9901C5.97635 16.6178 6.14556 16.3252 6.31677 16.0306C6.49807 15.7439 6.68137 15.4573 6.90899 15.0989C7.01978 14.9178 7.15877 14.7307 7.3038 14.5097C7.45286 14.2908 7.60797 14.0379 7.81142 13.7672C8.01084 13.4925 8.18206 13.2496 8.3432 13.0406C8.51241 12.8356 8.65945 12.6564 8.79441 12.4932C9.06031 12.1628 9.30404 11.9259 9.53569 11.679C9.65454 11.5576 9.76734 11.4322 9.89425 11.3048C10.0232 11.1794 10.1601 11.046 10.3112 10.8987C10.6053 10.5941 10.984 10.2557 11.4755 9.7919C11.82 9.49331 12.106 9.24448 12.3538 9.02949C12.6096 8.82445 12.8271 8.64928 13.0225 8.49202C13.1212 8.41239 13.2139 8.33675 13.3045 8.26309C13.3992 8.19342 13.4898 8.12574 13.5825 8.05806C13.7658 7.92269 13.9511 7.78534 14.1586 7.63405C14.638 7.39119 15.1799 7.07468 16.0481 6.59693C16.3059 6.44365 16.5476 6.32819 16.7611 6.21472C16.9747 6.10126 17.164 5.99973 17.3372 5.90617C17.6918 5.73498 17.9778 5.58966 18.2497 5.44833C18.5217 5.30898 18.7896 5.19551 19.0958 5.05617C19.3999 4.91284 19.7585 4.78345 20.2157 4.6242C20.4031 4.56249 20.5985 4.49083 20.8261 4.4331C21.235 4.32162 21.5734 4.21612 21.8776 4.14645C22.3328 4.05289 22.6934 3.97724 23.0157 3.92748C23.34 3.88766 23.624 3.85382 23.9241 3.816C24.2223 3.77221 24.5425 3.76424 24.9313 3.72244C25.3201 3.67467 25.7834 3.65675 26.3756 3.61096C26.8611 3.57712 27.2639 3.58111 27.6064 3.56319C27.7756 3.55523 27.9407 3.55125 28.0979 3.54925C28.255 3.54527 28.4 3.54328 28.539 3.5393C29.097 3.52537 29.5502 3.51342 30.1626 3.4975C30.6057 3.49949 31.1375 3.50347 31.8405 3.50745C32.336 3.50745 32.7409 3.4975 33.0934 3.48157C34.5679 3.47759 35.1118 3.4756 36.4956 3.47162V0.883787C34.6384 0.935544 34.2819 1.1147 31.8224 1.1147L31.8264 1.11669Z" fill="#24262B"/>
<path d="M73.4246 22.7272C73.3924 22.5441 73.3642 22.3749 73.336 22.2136C73.3037 22.0544 73.2715 21.9031 73.2433 21.7617C73.1869 21.4771 73.1426 21.2263 73.1063 20.9973C73.0197 20.5415 72.9532 20.1752 72.8948 19.8029C72.7538 19.0684 72.6108 18.3219 72.0226 16.9404C71.8675 16.598 71.7245 16.3034 71.5936 16.0406C71.4606 15.7799 71.3236 15.5589 71.2028 15.3578C71.0799 15.1568 70.9671 14.9796 70.8563 14.8124C70.7375 14.6512 70.6247 14.4999 70.5139 14.3486C70.2883 14.048 70.0687 13.7454 69.7827 13.3752C69.6417 13.188 69.4926 12.983 69.3254 12.7441C69.1482 12.5132 68.9548 12.2524 68.7372 11.9519C68.5257 11.6473 68.3142 11.3985 68.143 11.1656C67.9657 10.9366 67.8227 10.7236 67.6737 10.5445C67.3836 10.1802 67.1701 9.87363 66.9384 9.58101C66.7027 9.29037 66.4691 8.99775 66.1569 8.6474C65.9957 8.47819 65.8144 8.29306 65.6049 8.08803C65.5002 7.98451 65.3894 7.87503 65.2685 7.76355C65.1436 7.65407 65.0107 7.5406 64.8677 7.41718C63.7276 6.43779 63.1051 6.0098 62.4948 5.57186C61.8764 5.14387 61.2499 4.71986 59.9265 3.99726C59.5901 3.82806 59.294 3.67876 59.0321 3.54539C58.7703 3.41002 58.5265 3.31646 58.313 3.21892C58.0975 3.12536 57.9021 3.03976 57.7188 2.96014C57.5335 2.88449 57.3542 2.82079 57.1789 2.75311C56.8244 2.62372 56.4759 2.4784 56.0247 2.33906C55.8011 2.2654 55.5534 2.18379 55.2734 2.09222C54.9914 2.00463 54.6711 1.92102 54.3085 1.81751C53.8029 1.66423 53.3718 1.59058 53.0052 1.50697C52.6386 1.42336 52.3264 1.37758 52.0403 1.33777C51.7543 1.29795 51.4965 1.26212 51.2346 1.2243C50.9707 1.20041 50.7028 1.17453 50.3987 1.14467C49.9233 1.02922 49.3431 0.971488 48.5495 0.909778C47.9351 0.893853 47.4335 0.887881 47.0307 0.901816C46.6339 0.917741 46.3095 0.941628 46.0054 0.965516C45.0365 0.961535 44.3677 0.959544 42.5548 0.953572C41.3321 0.957554 40.6311 0.961535 40.0047 0.963526C39.2392 0.871956 38.5946 0.881909 37.0698 0.881909C36.8905 0.8839 36.6528 0.887881 36.4937 0.889872V3.4777C36.6568 3.4777 36.8764 3.5215 37.0617 3.5215C39.9321 3.51752 39.8858 3.51752 42.7583 3.51354C44.5269 3.51354 45.2057 3.39012 46.1383 3.29457C46.4082 3.29257 46.7044 3.29058 47.0569 3.2866C47.4033 3.2866 47.7861 3.30054 48.2594 3.31049C48.6039 3.32044 48.902 3.35628 49.1699 3.37618C49.4378 3.40007 49.6735 3.41799 49.885 3.45581C50.308 3.52349 50.6484 3.57525 50.9828 3.64293C51.3172 3.71857 51.6516 3.79422 52.0685 3.87981C52.276 3.93157 52.5036 3.98731 52.7615 4.053C53.0213 4.11471 53.3114 4.1804 53.6397 4.27993C53.9681 4.37548 54.2561 4.44914 54.5099 4.53473C54.7617 4.62431 54.9813 4.70195 55.1827 4.77361C55.5856 4.91097 55.8938 5.06225 56.206 5.19364C56.3611 5.26331 56.5182 5.32701 56.6814 5.40464C56.8446 5.48427 57.0158 5.56589 57.2071 5.65945C57.3965 5.755 57.614 5.84059 57.8457 5.968C58.0814 6.08942 58.3452 6.22479 58.6474 6.37807C59.0462 6.60102 59.3786 6.78615 59.6646 6.9454C59.9487 7.11062 60.1823 7.26191 60.3999 7.3913C60.6174 7.5207 60.8128 7.64013 61.0001 7.76952C61.1895 7.89693 61.3809 8.02433 61.5944 8.16765C61.7958 8.34084 62.0033 8.54588 62.2692 8.77082C62.5371 8.98979 62.8332 9.26649 63.2099 9.58698C63.4415 9.77808 63.6329 9.96321 63.8101 10.1245C63.9894 10.2857 64.1486 10.429 64.2956 10.5604C64.5776 10.8331 64.8093 11.0521 65.0349 11.2611C65.2585 11.4681 65.4559 11.6811 65.6895 11.92C65.9272 12.1569 66.1689 12.4475 66.4751 12.8198C66.598 12.9731 66.7269 13.1343 66.8599 13.3254C67.1016 13.6698 67.3191 13.9465 67.4843 14.2112C67.726 14.6054 67.9254 14.91 68.0725 15.1986C68.2195 15.4872 68.3485 15.7401 68.4854 16.0068C68.6123 16.2775 68.7453 16.5642 68.9105 16.9145C68.9991 17.0877 69.0797 17.2828 69.1743 17.4998C69.271 17.7148 69.3778 17.9536 69.4986 18.2224C69.6779 18.6703 69.827 19.0366 69.9539 19.3531C70.0707 19.6736 70.1674 19.9403 70.2581 20.1852C70.3547 20.428 70.4152 20.6569 70.4937 20.8878C70.5642 21.1208 70.6509 21.3556 70.7234 21.6343C70.7677 21.8374 70.818 22.0603 70.8744 22.3131C70.9026 22.4386 70.9369 22.5719 70.9651 22.7153C70.9913 22.8586 71.0175 23.0119 71.0477 23.1731C71.088 23.402 71.1283 23.6091 71.1685 23.7982C71.2008 23.9893 71.231 24.1644 71.2592 24.3277C71.2995 24.6701 71.3518 24.9587 71.368 25.2195C71.3881 25.4803 71.4082 25.7151 71.4264 25.9461C71.4364 26.0615 71.4445 26.177 71.4546 26.2924C71.4586 26.4099 71.4606 26.5293 71.4646 26.6567C71.4727 26.9095 71.4787 27.1842 71.4888 27.5087H74.1075C74.0833 27.027 74.0511 26.6428 74.0188 26.3004C73.9846 25.956 73.9221 25.6534 73.8738 25.3329C73.8496 25.1717 73.8234 25.0065 73.7973 24.8293C73.765 24.6521 73.7308 24.463 73.6945 24.256C73.6603 24.049 73.624 23.822 73.5837 23.5672C73.5374 23.3144 73.485 23.0377 73.4286 22.7252L73.4246 22.7272Z" fill="#24262B"/>
</g>
<defs>
<clipPath id="clip0_45_4">
<rect width="75" height="57" fill="white"/>
</clipPath>
</defs>
</svg>
